<?xml version="1.0" encoding="utf-8"?>
<!-- Generator: Adobe Illustrator 19.2.1, SVG Export Plug-In . SVG Version: 6.00 Build 0)  -->
<svg version="1.1" id="Capa_1" xmlns="http://www.w3.org/2000/svg" xmlns:xlink="http://www.w3.org/1999/xlink" x="0px" y="0px"
	 viewBox="0 0 29.1 29.1" style="enable-background:new 0 0 29.1 29.1;" xml:space="preserve">
<style type="text/css">
	.st0{fill:#FFFFFF;}
</style>
<g>
	<path class="st0" d="M17,14.2l-4.4-2.8c-0.2,0-0.4,0-0.4,0c-0.2,0-0.2,0.2-0.2,0.4v5.5c0,0.2,0,0.4,0.2,0.4h0.2h0.2L17,15
		c0.2,0,0.2-0.2,0.2-0.4C17.2,14.4,17,14.2,17,14.2L17,14.2z M12.8,16.6v-4l3.3,2L12.8,16.6z"/>
	<path class="st0" d="M28,5.4H1.2c-0.4,0-0.6,0.2-0.6,0.4v17.5c0,0.2,0.2,0.6,0.6,0.6H28c0.2,0,0.6-0.2,0.6-0.6V5.8
		C28.4,5.6,28.2,5.4,28,5.4L28,5.4z M5.4,10.4H1.5v-4h3.9V10.4z M1.5,11.3h3.9v6.1H1.5V11.3z M6.3,17.9V6.1h16.4v16.6H6.3V17.9z
		 M27.5,10.4h-3.9v-4h3.9V10.4z M23.6,11.3h3.9v6.1h-3.9V11.3z M1.5,22.7v-4.2h3.9v4.2H1.5z M27.5,22.7h-3.9v-4.2h3.9V22.7z"/>
</g>
</svg>
