<?xml version="1.0" encoding="utf-8"?>
<!-- Generator: Adobe Illustrator 19.2.1, SVG Export Plug-In . SVG Version: 6.00 Build 0)  -->
<svg version="1.1" id="Capa_1" xmlns="http://www.w3.org/2000/svg" xmlns:xlink="http://www.w3.org/1999/xlink" x="0px" y="0px"
	 viewBox="0 0 29.1 29.1" style="enable-background:new 0 0 29.1 29.1;" xml:space="preserve">
<style type="text/css">
	.st0{fill:#FFFFFF;}
</style>
<g>
	<path class="st0" d="M12.6,18.5V17c0-0.8,0.2-1.6,0.6-2c0.4-0.6,1-1.2,1.8-1.8c0.8-0.6,1.5-1.2,1.8-1.6c0.4-0.4,0.6-1,0.6-1.8
		c0-0.8-0.2-1.6-0.8-2c-0.6-0.4-1.2-0.8-2.3-0.8s-1.6,0.2-2.3,0.8c-0.6,0.6-0.8,1.2-0.8,2v0.8c0,0.2,0,0.2-0.2,0.2l-2.2-0.2
		c-0.1,0-0.1,0-0.1-0.2V9.7c0-1,0.2-2,0.8-2.8c0.4-0.8,1.2-1.5,2-1.8c0.8-0.4,2-0.6,3.1-0.6c1.8,0,3.1,0.4,4.3,1.5
		c1,1,1.6,2.3,1.6,3.9c0,0.8-0.2,1.6-0.4,2.3c-0.2,0.6-0.6,1-1,1.5c-0.4,0.4-1,0.8-1.6,1.2s-1.2,1-1.5,1.2c-0.4,0.2-0.4,0.7-0.4,1.1
		v1.2c0,0.2,0,0.2-0.2,0.2h-2.3C12.8,18.7,12.6,18.7,12.6,18.5z M12.6,24.2C12.1,23.8,12,23.4,12,23c0-0.6,0.2-1,0.6-1.2
		c0.4-0.4,0.8-0.6,1.2-0.6c0.6,0,1,0.2,1.2,0.6c0.4,0.4,0.6,0.8,0.6,1.2c0,0.6-0.2,1-0.6,1.2c-0.4,0.4-0.8,0.6-1.2,0.6
		C13.4,24.8,13,24.7,12.6,24.2z"/>
</g>
</svg>
