<?xml version="1.0" encoding="utf-8"?>
<!-- Generator: Adobe Illustrator 19.2.1, SVG Export Plug-In . SVG Version: 6.00 Build 0)  -->
<svg version="1.1" id="Capa_1" xmlns="http://www.w3.org/2000/svg" xmlns:xlink="http://www.w3.org/1999/xlink" x="0px" y="0px"
	 viewBox="0 0 29.1 29.1" style="enable-background:new 0 0 29.1 29.1;" xml:space="preserve">
<style type="text/css">
	.st0{fill:#FFFFFF;}
</style>
<g>
	<g>
		<path class="st0" d="M28.1,26.7l-6.8-6.8c1.7-2,2.8-4.8,2.8-7.6c0-6.5-5.3-11.8-11.8-11.8S0.6,5.8,0.6,12.3s5.3,11.8,11.8,11.8
			c2.8,0,5.3-1.1,7.6-2.8l6.8,6.8c0.6,0.6,1.1,0.6,1.7,0C28.7,28.1,28.7,27.2,28.1,26.7L28.1,26.7z M12.4,21.9
			c-5.3,0-9.6-4.2-9.6-9.6S7,2.7,12.4,2.7S22,6.9,22,12.3S17.4,21.9,12.4,21.9L12.4,21.9z"/>
	</g>
</g>
</svg>
